{"asset":{"version":"1.0","generator":"Open Asset Import Library (assimp v4.1.0)"},"accessors":{"12960_Shark_v2_mesh_accessor":{"bufferView":"12960_Shark_v2_mesh_view","byteOffset":0,"byteStride":0,"componentType":5126,"count":27681,"type":"VEC3","max":[123.52790069580078,38.365299224853516,36.31800079345703],"min":[-123.52790069580078,-38.365299224853516,-36.31800079345703]},"12960_Shark_v2_mesh_accessor_0":{"bufferView":"12960_Shark_v2_mesh_view_0","byteOffset":0,"byteStride":0,"componentType":5126,"count":27681,"type":"VEC3","max":[1,1,0.9998999834060669],"min":[-1,-1,-1]},"12960_Shark_v2_mesh_accessor_1":{"bufferView":"12960_Shark_v2_mesh_view_1","byteOffset":0,"byteStride":0,"componentType":5126,"count":27681,"type":"VEC2","max":[0.9944000244140625,0.9847999811172485],"min":[0.01769999973475933,0.0059999823570251465]},"12960_Shark_v2_mesh_accessor_2":{"bufferView":"12960_Shark_v2_mesh_view_2","byteOffset":0,"byteStride":0,"componentType":5123,"count":149106,"type":"SCALAR","max":[27680],"min":[0]}},"buffers":{"etcbrp76ejho":{"byteLength":1184004,"type":"arraybuffer","uri":"etcbrp76ejho.bin"}},"bufferViews":{"12960_Shark_v2_mesh_view":{"buffer":"etcbrp76ejho","byteOffset":0,"byteLength":332172,"target":34962},"12960_Shark_v2_mesh_view_0":{"buffer":"etcbrp76ejho","byteOffset":332172,"byteLength":332172,"target":34962},"12960_Shark_v2_mesh_view_1":{"buffer":"etcbrp76ejho","byteOffset":664344,"byteLength":221448,"target":34962},"12960_Shark_v2_mesh_view_2":{"buffer":"etcbrp76ejho","byteOffset":885792,"byteLength":298212,"target":34963}},"materials":{"DefaultMaterial":{"values":{"ambient":[0,0,0,1],"diffuse":[0.6000000238418579,0.6000000238418579,0.6000000238418579,1],"specular":[0,0,0,1],"emission":[0,0,0,1],"shininess":0}},"12960_Shark":{"values":{"ambient":[0,0,0,1],"diffuse":[0.6000000238418579,0.6000000238418579,0.6000000238418579,1],"specular":[0,0,0,1],"emission":[0,0,0,1],"shininess":0}}},"meshes":{"12960_Shark_v2_mesh":{"name":"","primitives":[{"mode":4,"material":"12960_Shark","indices":"12960_Shark_v2_mesh_accessor_2","attributes":{"POSITION":"12960_Shark_v2_mesh_accessor","NORMAL":"12960_Shark_v2_mesh_accessor_0","TEXCOORD_0":"12960_Shark_v2_mesh_accessor_1"}}]}},"nodes":{"etcbrp76ejho.obj":{"children":["12960_Shark_v2"]},"12960_Shark_v2":{"meshes":["12960_Shark_v2_mesh"]}},"scenes":{"defaultScene":{"nodes":["etcbrp76ejho.obj"]}},"scene":"defaultScene"}
